<?xml version="1.0" encoding="utf-8"?>
<!-- Generator: Adobe Illustrator 24.3.0, SVG Export Plug-In . SVG Version: 6.00 Build 0)  -->
<svg version="1.1" id="Layer_1" xmlns="http://www.w3.org/2000/svg" xmlns:xlink="http://www.w3.org/1999/xlink" x="0px" y="0px"
	 viewBox="0 0 2000 800" style="enable-background:new 0 0 2000 800;" xml:space="preserve">
<style type="text/css">
	.st0{opacity:0.25;fill:#AAC9FF;}
	.st1{fill:#AAC9FF;}
	.st2{fill:#AAC9FF;stroke:#000000;stroke-width:4;stroke-miterlimit:10;}
	.st3{fill:none;stroke:#000000;stroke-miterlimit:10;}
	.st4{fill:#FFD394;stroke:#000000;stroke-width:4;stroke-miterlimit:10;}
	.st5{fill:none;stroke:#000000;stroke-width:2;stroke-miterlimit:10;stroke-dasharray:10,10;}
	.st6{font-family:'MyriadPro-Regular';}
	.st7{font-size:37.8804px;}
	.st8{font-size:50.5071px;}
	.st9{fill:none;}
	.st10{fill:none;stroke:#000000;stroke-width:4;stroke-miterlimit:10;}
</style>
<rect x="1269.94" y="282.77" class="st0" width="624.36" height="240.24"/>
<path class="st0" d="M1126.58,300.51c-7.93-2.72-2.98-1.62-15.42-5.03c-0.2-0.06-6.72-3.77-15.85-4.42
	c-5.46-0.39-12.91-3.76-23.19-5.99c-4.51-0.98,0,0-13.04-2.71c-19.43-4.04-25.91-3.8-25.91-3.8l0.46,209.02l71.88-3.78
	L1126.58,300.51z"/>
<path class="st0" d="M1222.61,297.72c-0.65-0.53-10.63,0-40.16,1.05c-0.51,0.02-9.29-0.32-20.75,0c-11.78,0.33-19.9-0.05-33.01,1.74
	c-11.05,1.51-13.19,3.36-39.03,3.36c-38.31,0-54.54,1.34-54.54,1.34l1,214.84l174.23-4.41L1222.61,297.72z"/>
<path class="st1" d="M1207.65,330.82c0.04-0.75-6.24-3.27-8.91-3.99c-8.06-2.16-9.67-3.71-16.65-6.84
	c-0.47-0.21-32.24-10.37-38.29-12.9c-6.69-2.81-14.67-8.25-18.09-8.2c-17.31,0.23-14.69,0.31-39.3,0.97
	c-24.22,0.65-51.41,0.67-51.41,0.67l1.49,234.12l174.23-4.41L1207.65,330.82z"/>
<rect x="1323.68" y="337.78" class="st2" width="544.16" height="195.77"/>
<rect x="57.68" y="277.77" class="st0" width="862.03" height="240.24"/>
<rect x="340.44" y="336.03" class="st2" width="544.16" height="195.77"/>
<rect x="60.54" y="292.8" class="st1" width="232.77" height="241.39"/>
<path class="st3" d="M567.8,406.01"/>
<path class="st4" d="M637.88,477.12"/>
<path class="st4" d="M954.06,201.16l-0.48,333.03H60.54v-56.4c11.22,4.1,38.47,12.2,65.92,0.6c14.91-6.3,28.78-15.73,43.25-31.92
	c6.26-7,41.61-43.4,55.66-67.1c12.62-21.28,34.56-59.11,40.55-67.81c6.38-9.25,15.1-19.5,24.52-27.62
	c11.21-9.64,22.36-2.89,27.6,5.8c0,0,11.17,23.44,15.46,33.9c12.06,29.41,7.95,25.8,23.37,54.83c8.63,16.25,27.38,35.6,39.76,45.2
	c15.94,12.36,48.7,24.8,61.2,27.86c34.49,8.47,103.14,15.48,133.32,15.12c91.18-1.09,126.41-5.18,139.38-6.13
	c24.61-1.81,74-22.35,109.18-57.74c15.26-15.35,35.66-45.62,60.01-93.54c12.5-24.6,21.03-63.23,23.14-77.76
	C925.78,211.45,940.13,188.84,954.06,201.16"/>
<path class="st3" d="M829.08,191.11"/>
<path class="st3" d="M1318.77-212.69"/>
<path class="st4" d="M875.83-212.6"/>
<line class="st5" x1="297.48" y1="277.35" x2="912.23" y2="277.26"/>
<path class="st3" d="M1542.55,406.56"/>
<path class="st4" d="M1612.62,477.68"/>
<path class="st4" d="M1928.8,201.71l-0.48,333.03h-893.04v-56.4c11.22,4.1,38.47,12.2,65.92,0.6c14.91-6.3,23.52-15.73,37.99-31.92
	c6.26-7,22.61-26.09,45.14-69.2c10.44-19.98,19.16-39.3,31.08-65.7c9.89-21.9,14.42-39.61,32-57.82
	c10.42-10.8,22.42-19.85,33.37-18.93c14.01,1.18,22.87,17.94,35.81,43.18c14.5,28.29,12.76,36.22,28.18,65.25
	c8.63,16.25,14.23,26.58,25.49,37.13c14.72,13.8,30.5,19.92,42.73,23.93c45.54,14.92,90.18,16.33,120.35,17.09
	c96.37,2.44,96.37,2.44,115.5,0.7c24.57-2.23,82.71-10.26,121.36-38.4c25.74-18.74,43.48-37.51,75.15-80.95
	c18.37-25.19,41.85-66.86,43.9-69.78C1906.18,209.35,1917.88,187.75,1928.8,201.71"/>
<path class="st5" d="M1153.31,442.01c5.9-5.99,6.12-7.44,34.32-44.31c5.19-6.78,4.3-5.53,5.5-7.17
	c20.75-28.45,35.12-52.68,38.94-59.48c5.34-9.52,9.73-18.07,18.21-30.08c6.84-9.69,14.83-19.49,25.07-19.36c0.1,0,1.02,0.02,2,0.15
	c13.69,1.83,21.28,20.83,26.45,33.45c18.42,44.96,27.63,67.44,34.24,77.36c23.77,35.72,63.02,49.85,80.33,56.4
	c14.9,5.64,28.38,8.55,56.4,11.96c42.8,5.21,84.28,10.26,146.98,6.84c75.43-4.11,113.15-6.17,146.98-25.64
	c37.02-21.3,57.01-49.4,78.62-82.04c17.89-27.02,45.43-76.78,56.23-148.68c5.58-9.96,13.78-15.69,20.5-14.26
	c1.3,0.28,2.92,0.9,4.65,2.33c-2.62,111.87,2.13,223.73,0.56,335.6h-894.09c-1.05-18.8-1.05-37.6-1.05-56.4
	c26.75,10.65,45.96,6.83,54.2,4.48c10.29-2.94,17.93-4.74,32.56-13.95C1134.63,460.57,1143.49,451.98,1153.31,442.01z"/>
<text transform="matrix(1 0 0 1 1453.4474 513.6168)" class="st6 st7">Crustal Rebound</text>
<text transform="matrix(1 0 0 1 1032.2589 157.8351)"><tspan x="0" y="0" class="st6 st7">Shift in Gravitational </tspan><tspan x="0" y="45.46" class="st6 st7">Equipotential</tspan></text>
<text transform="matrix(1 0 0 1 218.3125 622.5523)" class="st6 st8">Eustatic “Bath Tub” Scenario</text>
<line class="st9" x1="60.54" y1="477.79" x2="60.54" y2="250.71"/>
<line class="st10" x1="60.54" y1="475.41" x2="60.54" y2="276.72"/>
<line class="st5" x1="1317.64" y1="283.01" x2="1859.74" y2="282.92"/>
<line class="st10" x1="60.54" y1="278.83" x2="297.48" y2="278.59"/>
<line class="st5" x1="61.47" y1="292.84" x2="279.09" y2="292.76"/>
<g>
	<g>
		<g>
			<polygon points="604.14,277.97 604.24,311.79 598.46,311.81 605.07,323.18 611.61,311.77 605.83,311.78 605.72,277.96 			"/>
		</g>
	</g>
</g>
<g>
	<g>
		<g>
			<polygon points="176.52,292.78 176.68,286.94 182.46,287.1 176.04,281.12 169.31,286.74 175.09,286.9 174.94,292.73 			"/>
		</g>
	</g>
</g>
<g>
	<g>
		<g>
			<polygon points="1589.87,467.76 1589.99,447.06 1595.77,447.1 1589.26,435.67 1582.62,447.02 1588.4,447.05 1588.28,467.75 			
				"/>
		</g>
	</g>
</g>
<g>
	<g>
		<g>
			<polygon points="1766.67,443.79 1762.84,423.45 1768.52,422.38 1759.95,412.41 1755.6,424.82 1761.28,423.75 1765.12,444.09 			
				"/>
		</g>
	</g>
</g>
<g>
	<g>
		<g>
			<polygon points="1285.14,283.86 1289.55,263.64 1295.2,264.87 1291.19,252.34 1282.34,262.07 1288,263.3 1283.59,283.53 			"/>
		</g>
	</g>
</g>
<g>
	<g>
		<g>
			<polygon points="1414.15,446.95 1420.06,427.19 1425.6,428.85 1422.56,416.05 1413,425.08 1418.54,426.74 1412.63,446.5 			"/>
		</g>
	</g>
</g>
<path class="st10" d="M1032.51,276.91c15.47,2.02,17.93,3.33,28.68,5.44c25.47,5.01,31.23,7.5,45.68,11.32
	c27.45,7.26,79.38,28,100.78,37.15"/>
<g>
	<g>
		<g>
			<path d="M1192.11,298.08c-0.45,2.53-0.95,5.05-1.47,7.57l-0.09,0.45l-5.66-1.17c1.38,4.13,2.72,8.39,4.22,12.51
				c2.82-3.37,5.73-6.54,8.66-9.84l-5.66-1.17l0.09-0.45c0.52-2.53,1.02-5.06,1.48-7.61L1192.11,298.08z"/>
		</g>
	</g>
</g>
<path class="st10" d="M1063.92,415.2"/>
<path class="st10" d="M1063.92,278.56"/>
<line class="st10" x1="1034.99" y1="505.53" x2="1034.99" y2="299.47"/>
<g>
	<g>
		<g>
			<polygon points="1577.02,281.88 1577.59,315.72 1571.8,315.81 1578.57,327.09 1584.95,315.59 1579.17,315.69 1578.61,281.85 			
				"/>
		</g>
	</g>
</g>
<g>
	<g>
		<g>
			<polygon points="1048.77,300.5 1048.74,293.86 1048.73,293.4 1054.52,293.38 1047.88,282.01 1041.36,293.43 1047.15,293.41 
				1047.15,293.87 1047.18,300.51 			"/>
		</g>
	</g>
</g>
<text transform="matrix(1 0 0 1 1162.734 622.5521)" class="st6 st8">Predicted Change in Sea Level</text>
<text transform="matrix(1 0 0 1 618.937 315.1095)" class="st6 st7">-500 m</text>
<text transform="matrix(1 0 0 1 1600.7677 318.4869)" class="st6 st7">-500 m</text>
<text transform="matrix(1 0 0 1 95.1416 264.6153)" class="st6 st7">+2.7 m</text>
<text transform="matrix(1 0 0 1 1128.8615 276.9142)" class="st6 st7">-4.7 m</text>
<line class="st5" x1="1033.5" y1="300.51" x2="1222.61" y2="297.72"/>
</svg>
